<mxfile host="app.diagrams.net" modified="2023-01-21T01:49:35.825Z" agent="5.0 (X11)" etag="8P18atVRXtQqu2r8Qy1c" version="20.8.10" type="github">
  <diagram name="Page-1" id="mY0pcLSpGXBbWWkWW9ns">
    <mxGraphModel dx="2854" dy="1890" grid="1" gridSize="10" guides="1" tooltips="1" connect="1" arrows="1" fold="1" page="1" pageScale="1" pageWidth="850" pageHeight="1100" math="0" shadow="0">
      <root>
        <mxCell id="0" />
        <mxCell id="1" parent="0" />
        <mxCell id="Zcmbpj3st8GILcX_Dy8P-2" value="Scene" style="swimlane;fontStyle=1;childLayout=stackLayout;horizontal=1;startSize=30;horizontalStack=0;resizeParent=1;resizeParentMax=0;resizeLast=0;collapsible=1;marginBottom=0;whiteSpace=wrap;html=1;fontSize=14;" vertex="1" parent="1">
          <mxGeometry x="-200" y="240" width="300" height="120" as="geometry" />
        </mxCell>
        <mxCell id="Zcmbpj3st8GILcX_Dy8P-3" value="void update(const double delta)" style="text;strokeColor=default;fillColor=none;align=left;verticalAlign=middle;spacingLeft=4;spacingRight=4;overflow=hidden;points=[[0,0.5],[1,0.5]];portConstraint=eastwest;rotatable=0;whiteSpace=wrap;html=1;fontSize=14;" vertex="1" parent="Zcmbpj3st8GILcX_Dy8P-2">
          <mxGeometry y="30" width="300" height="30" as="geometry" />
        </mxCell>
        <mxCell id="Zcmbpj3st8GILcX_Dy8P-4" value="void render() const" style="text;strokeColor=default;fillColor=none;align=left;verticalAlign=middle;spacingLeft=4;spacingRight=4;overflow=hidden;points=[[0,0.5],[1,0.5]];portConstraint=eastwest;rotatable=0;whiteSpace=wrap;html=1;fontSize=14;" vertex="1" parent="Zcmbpj3st8GILcX_Dy8P-2">
          <mxGeometry y="60" width="300" height="30" as="geometry" />
        </mxCell>
        <mxCell id="Zcmbpj3st8GILcX_Dy8P-5" value="void update_hud()" style="text;strokeColor=none;fillColor=none;align=left;verticalAlign=middle;spacingLeft=4;spacingRight=4;overflow=hidden;points=[[0,0.5],[1,0.5]];portConstraint=eastwest;rotatable=0;whiteSpace=wrap;html=1;fontSize=14;" vertex="1" parent="Zcmbpj3st8GILcX_Dy8P-2">
          <mxGeometry y="90" width="300" height="30" as="geometry" />
        </mxCell>
        <mxCell id="Zcmbpj3st8GILcX_Dy8P-6" value="&lt;div&gt;GameApplication stores the&lt;/div&gt;&lt;div&gt;current scene and make transitions&lt;/div&gt;" style="edgeStyle=orthogonalEdgeStyle;rounded=0;orthogonalLoop=1;jettySize=auto;html=1;entryX=0.5;entryY=0;entryDx=0;entryDy=0;fontSize=14;exitX=0.5;exitY=1;exitDx=0;exitDy=0;exitPerimeter=0;" edge="1" parent="1" source="Zcmbpj3st8GILcX_Dy8P-8" target="Zcmbpj3st8GILcX_Dy8P-2">
          <mxGeometry x="0.0031" relative="1" as="geometry">
            <Array as="points">
              <mxPoint x="-50" y="120" />
              <mxPoint x="-50" y="120" />
            </Array>
            <mxPoint as="offset" />
          </mxGeometry>
        </mxCell>
        <mxCell id="Zcmbpj3st8GILcX_Dy8P-7" value="GameApplication" style="swimlane;fontStyle=1;childLayout=stackLayout;horizontal=1;startSize=30;horizontalStack=0;resizeParent=1;resizeParentMax=0;resizeLast=0;collapsible=1;marginBottom=0;whiteSpace=wrap;html=1;fontSize=14;" vertex="1" parent="1">
          <mxGeometry x="-150" y="10" width="200" height="60" as="geometry" />
        </mxCell>
        <mxCell id="Zcmbpj3st8GILcX_Dy8P-8" value="std::unique_ptr&amp;lt;Scene&amp;gt;" style="text;strokeColor=none;fillColor=none;align=left;verticalAlign=middle;spacingLeft=4;spacingRight=4;overflow=hidden;points=[[0,0.5],[1,0.5]];portConstraint=eastwest;rotatable=0;whiteSpace=wrap;html=1;fontSize=14;" vertex="1" parent="Zcmbpj3st8GILcX_Dy8P-7">
          <mxGeometry y="30" width="200" height="30" as="geometry" />
        </mxCell>
        <mxCell id="Zcmbpj3st8GILcX_Dy8P-9" style="edgeStyle=orthogonalEdgeStyle;rounded=0;orthogonalLoop=1;jettySize=auto;html=1;exitX=1;exitY=0.5;exitDx=0;exitDy=0;fontSize=14;" edge="1" parent="Zcmbpj3st8GILcX_Dy8P-7" source="Zcmbpj3st8GILcX_Dy8P-8" target="Zcmbpj3st8GILcX_Dy8P-8">
          <mxGeometry relative="1" as="geometry" />
        </mxCell>
        <mxCell id="Zcmbpj3st8GILcX_Dy8P-10" value="SDLHandler" style="swimlane;fontStyle=1;childLayout=stackLayout;horizontal=1;startSize=30;horizontalStack=0;resizeParent=1;resizeParentMax=0;resizeLast=0;collapsible=1;marginBottom=0;whiteSpace=wrap;html=1;strokeColor=default;fillColor=none;fontSize=14;" vertex="1" parent="1">
          <mxGeometry x="1010" y="200" width="430" height="80" as="geometry" />
        </mxCell>
        <mxCell id="Zcmbpj3st8GILcX_Dy8P-11" value="&amp;nbsp;&amp;nbsp;&amp;nbsp; void render(std::function&amp;lt;void(SDL_Renderer*)&amp;gt; render_func);" style="text;strokeColor=none;fillColor=none;align=left;verticalAlign=middle;spacingLeft=4;spacingRight=4;overflow=hidden;points=[[0,0.5],[1,0.5]];portConstraint=eastwest;rotatable=0;whiteSpace=wrap;html=1;fontSize=14;" vertex="1" parent="Zcmbpj3st8GILcX_Dy8P-10">
          <mxGeometry y="30" width="430" height="50" as="geometry" />
        </mxCell>
        <mxCell id="Zcmbpj3st8GILcX_Dy8P-12" value="&lt;div&gt;GraphicManager&lt;/div&gt;" style="swimlane;fontStyle=1;childLayout=stackLayout;horizontal=1;startSize=30;horizontalStack=0;resizeParent=1;resizeParentMax=0;resizeLast=0;collapsible=1;marginBottom=0;whiteSpace=wrap;html=1;strokeColor=default;fontSize=14;fillColor=none;" vertex="1" parent="1">
          <mxGeometry x="290" y="270" width="390" height="90" as="geometry" />
        </mxCell>
        <mxCell id="Zcmbpj3st8GILcX_Dy8P-13" value="std::function&amp;lt;void(SDL_Renderer*)&amp;gt; render_func" style="text;strokeColor=none;fillColor=none;align=left;verticalAlign=middle;spacingLeft=4;spacingRight=4;overflow=hidden;points=[[0,0.5],[1,0.5]];portConstraint=eastwest;rotatable=0;whiteSpace=wrap;html=1;fontSize=14;" vertex="1" parent="Zcmbpj3st8GILcX_Dy8P-12">
          <mxGeometry y="30" width="390" height="30" as="geometry" />
        </mxCell>
        <mxCell id="Zcmbpj3st8GILcX_Dy8P-14" value="std::function&amp;lt;void(void)&amp;gt; hud_func" style="text;strokeColor=none;fillColor=none;align=left;verticalAlign=middle;spacingLeft=4;spacingRight=4;overflow=hidden;points=[[0,0.5],[1,0.5]];portConstraint=eastwest;rotatable=0;whiteSpace=wrap;html=1;fontSize=14;" vertex="1" parent="Zcmbpj3st8GILcX_Dy8P-12">
          <mxGeometry y="60" width="390" height="30" as="geometry" />
        </mxCell>
        <mxCell id="Zcmbpj3st8GILcX_Dy8P-15" style="edgeStyle=orthogonalEdgeStyle;rounded=0;orthogonalLoop=1;jettySize=auto;html=1;entryX=0;entryY=0.5;entryDx=0;entryDy=0;fontSize=14;" edge="1" parent="1" source="Zcmbpj3st8GILcX_Dy8P-4" target="Zcmbpj3st8GILcX_Dy8P-13">
          <mxGeometry relative="1" as="geometry" />
        </mxCell>
        <mxCell id="Zcmbpj3st8GILcX_Dy8P-16" style="edgeStyle=orthogonalEdgeStyle;rounded=0;orthogonalLoop=1;jettySize=auto;html=1;entryX=0;entryY=0.5;entryDx=0;entryDy=0;fontSize=14;" edge="1" parent="1" source="Zcmbpj3st8GILcX_Dy8P-5" target="Zcmbpj3st8GILcX_Dy8P-14">
          <mxGeometry relative="1" as="geometry" />
        </mxCell>
        <mxCell id="Zcmbpj3st8GILcX_Dy8P-17" value="&lt;div&gt;render_func is executed inside SDLHandler,&lt;/div&gt;&lt;div&gt;so it has access to SDL context&lt;br&gt;&lt;/div&gt;" style="edgeStyle=orthogonalEdgeStyle;rounded=0;orthogonalLoop=1;jettySize=auto;html=1;entryX=0;entryY=0.5;entryDx=0;entryDy=0;fontSize=14;" edge="1" parent="1" source="Zcmbpj3st8GILcX_Dy8P-13" target="Zcmbpj3st8GILcX_Dy8P-11">
          <mxGeometry x="-0.0286" y="15" relative="1" as="geometry">
            <mxPoint as="offset" />
          </mxGeometry>
        </mxCell>
        <mxCell id="Zcmbpj3st8GILcX_Dy8P-18" value="ImGuiHandler" style="swimlane;fontStyle=1;childLayout=stackLayout;horizontal=1;startSize=30;horizontalStack=0;resizeParent=1;resizeParentMax=0;resizeLast=0;collapsible=1;marginBottom=0;whiteSpace=wrap;html=1;strokeColor=default;fillColor=none;fontSize=14;" vertex="1" parent="1">
          <mxGeometry x="1010" y="360" width="430" height="80" as="geometry" />
        </mxCell>
        <mxCell id="Zcmbpj3st8GILcX_Dy8P-19" value="void update_hud(std::function&amp;lt;void(void)&amp;gt;) hud_func" style="text;strokeColor=none;fillColor=none;align=left;verticalAlign=middle;spacingLeft=4;spacingRight=4;overflow=hidden;points=[[0,0.5],[1,0.5]];portConstraint=eastwest;rotatable=0;whiteSpace=wrap;html=1;fontSize=14;" vertex="1" parent="Zcmbpj3st8GILcX_Dy8P-18">
          <mxGeometry y="30" width="430" height="50" as="geometry" />
        </mxCell>
        <mxCell id="Zcmbpj3st8GILcX_Dy8P-20" style="edgeStyle=orthogonalEdgeStyle;rounded=0;orthogonalLoop=1;jettySize=auto;html=1;entryX=0;entryY=0.5;entryDx=0;entryDy=0;fontSize=14;" edge="1" parent="1" source="Zcmbpj3st8GILcX_Dy8P-14" target="Zcmbpj3st8GILcX_Dy8P-19">
          <mxGeometry relative="1" as="geometry" />
        </mxCell>
        <mxCell id="Zcmbpj3st8GILcX_Dy8P-21" value="&lt;div&gt;hud_func is executed inside ImGuiHandler,&lt;/div&gt;&lt;div&gt;so it has access to ImGui context&lt;br&gt;&lt;/div&gt;" style="edgeLabel;html=1;align=center;verticalAlign=middle;resizable=0;points=[];fontSize=14;" vertex="1" connectable="0" parent="Zcmbpj3st8GILcX_Dy8P-20">
          <mxGeometry x="-0.0645" y="-1" relative="1" as="geometry">
            <mxPoint x="-14" as="offset" />
          </mxGeometry>
        </mxCell>
        <mxCell id="Zcmbpj3st8GILcX_Dy8P-22" value="&lt;div&gt;update is executed directly on GameApplication,&lt;/div&gt;&lt;div&gt;it&#39;s designed to update non-graphical logic&lt;br&gt;&lt;/div&gt;" style="edgeStyle=orthogonalEdgeStyle;rounded=0;orthogonalLoop=1;jettySize=auto;html=1;entryX=1;entryY=0.5;entryDx=0;entryDy=0;fontSize=14;exitX=1;exitY=0.5;exitDx=0;exitDy=0;" edge="1" parent="1" source="Zcmbpj3st8GILcX_Dy8P-3" target="Zcmbpj3st8GILcX_Dy8P-7">
          <mxGeometry relative="1" as="geometry">
            <Array as="points">
              <mxPoint x="240" y="285" />
              <mxPoint x="240" y="40" />
            </Array>
          </mxGeometry>
        </mxCell>
        <mxCell id="Zcmbpj3st8GILcX_Dy8P-23" value="RimBoar scene system" style="text;html=1;strokeColor=none;fillColor=none;align=center;verticalAlign=middle;whiteSpace=wrap;rounded=0;fontSize=20;" vertex="1" parent="1">
          <mxGeometry x="350" y="-100" width="250" height="30" as="geometry" />
        </mxCell>
      </root>
    </mxGraphModel>
  </diagram>
</mxfile>
